<svg width="126" height="116" viewBox="0 0 126 116" fill="none" xmlns="http://www.w3.org/2000/svg">
<g clip-path="url(#clip0_7_214)">
<path d="M93.5744 63.4315H91.2468C90.1554 59.7486 87.999 56.4122 85.0734 53.8917L83.401 47.2036C83.349 46.9956 83.2496 46.8025 83.1106 46.6393C82.9717 46.4761 82.7969 46.3472 82.5999 46.2626L78.1867 44.3693C77.8476 44.2238 77.4647 44.219 77.122 44.3559C76.7794 44.4928 76.5052 44.7602 76.3597 45.0993C76.2143 45.4384 76.2095 45.8214 76.3464 46.164C76.4833 46.5066 76.7507 46.7808 77.0898 46.9263L80.8691 48.5478L81.6027 51.4813C72.7953 46.6419 61.3705 49.0812 55.4273 57.6703H5.29734V48.5272L27.3735 40.8423V44.6605C27.3735 44.9858 27.4875 45.3007 27.6956 45.5508L34.8908 54.1901C35.0214 54.3468 35.1848 54.4729 35.3695 54.5595C35.5543 54.646 35.7558 54.6909 35.9598 54.6909H53.2442C53.4846 54.6909 53.7209 54.6285 53.9301 54.51C54.1393 54.3914 54.3142 54.2207 54.4377 54.0144L62.4442 40.6428L71.5202 44.5367C71.8592 44.6822 72.2422 44.687 72.5849 44.5501C72.9275 44.4132 73.2017 44.1458 73.3471 43.8067C73.4926 43.4676 73.4974 43.0846 73.3605 42.742C73.2236 42.3994 72.9562 42.1252 72.6171 41.9797L63.1683 37.9258L60.5488 14.3605H61.8751C62.2441 14.3605 62.5979 14.2139 62.8588 13.953C63.1197 13.6921 63.2663 13.3383 63.2663 12.9694V7.20796C63.2663 6.83901 63.1197 6.48518 62.8588 6.22429C62.5979 5.96341 62.2441 5.81685 61.8751 5.81685H39.4379C39.0689 5.81685 38.7151 5.96341 38.4542 6.22429C38.1933 6.48518 38.0468 6.83901 38.0468 7.20796C38.0468 7.5769 38.1933 7.93073 38.4542 8.19162C38.7151 8.4525 39.0689 8.59906 39.4379 8.59906H60.4842V11.5783H27.275V8.59906H33.3799C33.7488 8.59906 34.1027 8.4525 34.3636 8.19162C34.6244 7.93073 34.771 7.5769 34.771 7.20796C34.771 6.83901 34.6244 6.48518 34.3636 6.22429C34.1027 5.96341 33.7488 5.81685 33.3799 5.81685H25.8839C25.5149 5.81685 25.1611 5.96341 24.9002 6.22429C24.6393 6.48518 24.4928 6.83901 24.4928 7.20796V12.9694C24.4928 13.3383 24.6393 13.6921 24.9002 13.953C25.1611 14.2139 25.5149 14.3605 25.8839 14.3605H27.3735V37.896L3.44883 46.2244C3.17608 46.3194 2.93964 46.4969 2.77233 46.7323C2.60501 46.9677 2.51512 47.2494 2.51512 47.5382V57.6701H1.39111C1.02216 57.6701 0.668329 57.8167 0.407446 58.0775C0.146563 58.3384 0 58.6923 0 59.0612L0 70.5785C0.000628407 70.7942 0.0511489 71.007 0.147613 71.2C0.244077 71.393 0.383872 71.5611 0.556072 71.6912L9.41835 78.3423C11.4776 84.6711 17.43 89.2597 24.4369 89.2597C31.6653 89.2597 37.7704 84.3764 39.6378 77.7367H53.7809C57.1001 84.7561 64.1456 89.2467 71.9625 89.2467C79.7848 89.2467 86.8244 84.7575 90.1434 77.7367C90.7247 77.6471 92.161 78.101 92.6459 76.8473C94.9657 70.7613 94.9655 71.0483 94.9655 70.5898V64.8226C94.9655 64.4537 94.8189 64.0998 94.5581 63.839C94.2972 63.5781 93.9434 63.4315 93.5744 63.4315ZM30.1557 44.1569V40.2761H46.0805V51.9087H36.6117L30.1557 44.1569ZM60.4408 38.5724L52.4557 51.9085H48.8627V14.3607H57.7495L60.4408 38.5724ZM46.0805 14.3607V37.4938H30.1557V14.3607H46.0805ZM71.9625 51.81C79.4276 51.81 85.9315 56.5114 88.3273 63.4313H84.6058C82.3804 58.5112 77.4168 55.2672 71.9625 55.2672C66.507 55.2672 61.5444 58.5109 59.319 63.4313H55.5974C57.9942 56.5136 64.5045 51.81 71.9625 51.81ZM81.4694 63.4315H62.4553C66.7717 56.2714 77.148 56.2643 81.4694 63.4315ZM52.6757 63.4315C51.5479 63.5062 50.8318 63.2132 50.206 63.8384L44.8417 69.1977L39.6352 69.1892C38.6223 65.5961 36.3697 62.5189 33.3671 60.4523H53.8153C53.3572 61.4137 52.9761 62.4098 52.6757 63.4315ZM9.23936 69.1873H2.78221V60.4523H15.507C12.5048 62.5184 10.2525 65.5951 9.23936 69.1873ZM5.5622 71.9696H8.71798C8.64273 72.7439 8.62574 73.5229 8.66715 74.2998L5.5622 71.9696ZM24.4369 86.4773C17.2633 86.4773 11.4271 80.6412 11.4271 73.4677C11.4271 66.294 17.2633 60.4579 24.4369 60.4579C31.6744 60.4579 37.4468 66.3723 37.4468 73.4677C37.4468 80.6412 31.6106 86.4773 24.4369 86.4773ZM56.9161 77.7365H61.0802C63.7031 81.0507 67.7132 83.0072 71.9623 83.0072C76.2063 83.0072 80.2211 81.049 82.8436 77.7365H87.0086C80.3763 89.3599 63.5538 89.3649 56.9161 77.7365ZM64.9732 77.7365H78.9505C76.9945 79.3231 74.5322 80.225 71.9625 80.225C69.3894 80.225 66.9286 79.3235 64.9732 77.7365ZM92.1833 70.3299L90.3949 74.9543H40.1568C40.2531 73.9626 40.2529 72.9638 40.1561 71.9722L45.4165 71.9807C46.4255 71.9807 46.3127 71.4719 51.765 66.2135H92.1833V70.3299Z" fill="white"/>
<path d="M24.4369 63.4258C18.9031 63.4258 14.4009 67.9279 14.4009 73.4619C14.4009 80.0209 20.64 84.8635 27.0289 83.1598C27.3827 83.0624 27.6837 82.8291 27.8663 82.5107C28.0488 82.1924 28.0982 81.8148 28.0037 81.4602C27.9091 81.1056 27.6782 80.8027 27.3614 80.6175C27.0445 80.4324 26.6673 80.3799 26.312 80.4716C21.6929 81.703 17.1832 78.203 17.1832 73.4619C17.1832 69.462 20.4372 66.208 24.4369 66.208C30.205 66.208 33.6301 72.6319 30.5237 77.4097C30.3248 77.719 30.2565 78.0944 30.3337 78.454C30.4109 78.8135 30.6272 79.1278 30.9355 79.3282C31.2437 79.5287 31.6188 79.5989 31.9787 79.5236C32.3386 79.4483 32.6541 79.2336 32.8561 78.9264C37.1461 72.3277 32.4317 63.4258 24.4369 63.4258ZM67.6484 71.9807H79.1709C79.5398 71.9807 79.8937 71.8341 80.1545 71.5732C80.4154 71.3124 80.562 70.9585 80.562 70.5896C80.562 70.2206 80.4154 69.8668 80.1545 69.6059C79.8937 69.345 79.5398 69.1985 79.1709 69.1985H67.6484C67.2795 69.1985 66.9257 69.345 66.6648 69.6059C66.4039 69.8668 66.2573 70.2206 66.2573 70.5896C66.2573 70.9585 66.4039 71.3124 66.6648 71.5732C66.9257 71.8341 67.2795 71.9807 67.6484 71.9807ZM87.8137 71.9697C88.6061 71.9697 89.2048 71.3176 89.2048 70.5786C89.2048 69.8213 88.59 69.1881 87.8143 69.1881C87.0331 69.1881 86.4226 69.8187 86.4226 70.5786C86.4226 71.3386 87.0358 71.9697 87.8137 71.9697ZM21.5852 46.4231C21.4448 46.54 21.3288 46.6834 21.2439 46.8452C21.1589 47.0069 21.1067 47.1838 21.0901 47.3657C21.0735 47.5476 21.0929 47.7311 21.1472 47.9055C21.2015 48.0799 21.2896 48.242 21.4066 48.3823L26.2025 54.1409C26.4387 54.4244 26.7777 54.6025 27.1452 54.636C27.5126 54.6695 27.8783 54.5557 28.1618 54.3196C28.4453 54.0834 28.6234 53.7444 28.6569 53.3769C28.6903 53.0095 28.5765 52.6438 28.3404 52.3603L23.5444 46.6017C23.3082 46.3183 22.9692 46.1403 22.6018 46.1068C22.2344 46.0733 21.8687 46.187 21.5852 46.4231ZM15.3447 49.3025C15.2043 49.4194 15.0883 49.5628 15.0034 49.7246C14.9184 49.8863 14.8662 50.0632 14.8496 50.2451C14.833 50.427 14.8524 50.6105 14.9067 50.7849C14.961 50.9593 15.0491 51.1214 15.166 51.2617L17.5641 54.1409C17.8003 54.4244 18.1393 54.6025 18.5068 54.636C18.8742 54.6695 19.2399 54.5557 19.5234 54.3196C19.8069 54.0834 19.985 53.7444 20.0184 53.3769C20.0519 53.0095 19.9381 52.6438 19.702 52.3603L17.3039 49.4811C17.187 49.3407 17.0436 49.2248 16.8818 49.1398C16.7201 49.0549 16.5432 49.0026 16.3613 48.986C16.1793 48.9694 15.9959 48.9888 15.8215 49.0431C15.6471 49.0974 15.485 49.1856 15.3447 49.3025Z" fill="white"/>
</g>
<g filter="url(#filter0_b_7_214)">
<rect width="69.6305" height="27.0805" transform="translate(47.5983 78.2298)" fill="url(#paint0_linear_7_214)"/>
<g filter="url(#filter1_bd_7_214)">
<path d="M66.4126 97.8267H56.4165V93.9224H65.79V88.8065H56.4165V84.8855H66.4126V79.2143H49.2812V103.498H66.4126V97.8267ZM69.5804 103.498H89.1184V97.8267H77.9274V97.692L88.7145 83.6738V79.2143H69.6814V84.8855H80.4012V85.0201L69.5804 99.0215V103.498ZM106.59 103.498V95.8072L114.887 79.2143H107.432L103.174 89.059H103.04L98.782 79.2143H91.1587L99.4552 95.8072V103.498H106.59Z" fill="white"/>
<path d="M66.4126 97.8267H66.7999V97.4394H66.4126V97.8267ZM56.4165 97.8267H56.0292V98.2139H56.4165V97.8267ZM56.4165 93.9224V93.5352H56.0292V93.9224H56.4165ZM65.79 93.9224V94.3097H66.1772V93.9224H65.79ZM65.79 88.8065H66.1772V88.4193H65.79V88.8065ZM56.4165 88.8065H56.0292V89.1938H56.4165V88.8065ZM56.4165 84.8855V84.4983H56.0292V84.8855H56.4165ZM66.4126 84.8855V85.2727H66.7999V84.8855H66.4126ZM66.4126 79.2143H66.7999V78.827H66.4126V79.2143ZM49.2812 79.2143V78.827H48.8939V79.2143H49.2812ZM49.2812 103.498H48.8939V103.885H49.2812V103.498ZM66.4126 103.498V103.885H66.7999V103.498H66.4126ZM66.4126 97.4394H56.4165V98.2139H66.4126V97.4394ZM56.8037 97.8267V93.9224H56.0292V97.8267H56.8037ZM56.4165 94.3097H65.79V93.5352H56.4165V94.3097ZM66.1772 93.9224V88.8065H65.4027V93.9224H66.1772ZM65.79 88.4193H56.4165V89.1938H65.79V88.4193ZM56.8037 88.8065V84.8855H56.0292V88.8065H56.8037ZM56.4165 85.2727H66.4126V84.4983H56.4165V85.2727ZM66.7999 84.8855V79.2143H66.0254V84.8855H66.7999ZM66.4126 78.827H49.2812V79.6015H66.4126V78.827ZM48.8939 79.2143V103.498H49.6684V79.2143H48.8939ZM49.2812 103.885H66.4126V103.111H49.2812V103.885ZM66.7999 103.498V97.8267H66.0254V103.498H66.7999ZM69.5804 103.498H69.1932V103.885H69.5804V103.498ZM89.1184 103.498V103.885H89.5056V103.498H89.1184ZM89.1184 97.8267H89.5056V97.4394H89.1184V97.8267ZM77.9274 97.8267H77.5402V98.2139H77.9274V97.8267ZM77.9274 97.692L77.6205 97.4559L77.5402 97.5603V97.692H77.9274ZM88.7145 83.6738L89.0214 83.91L89.1017 83.8056V83.6738H88.7145ZM88.7145 79.2143H89.1017V78.827H88.7145V79.2143ZM69.6814 79.2143V78.827H69.2942V79.2143H69.6814ZM69.6814 84.8855H69.2942V85.2727H69.6814V84.8855ZM80.4012 84.8855H80.7884V84.4983H80.4012V84.8855ZM80.4012 85.0201L80.7076 85.2569L80.7884 85.1523V85.0201H80.4012ZM69.5804 99.0215L69.274 98.7847L69.1932 98.8893V99.0215H69.5804ZM69.5804 103.885H89.1184V103.111H69.5804V103.885ZM89.5056 103.498V97.8267H88.7312V103.498H89.5056ZM89.1184 97.4394H77.9274V98.2139H89.1184V97.4394ZM78.3146 97.8267V97.692H77.5402V97.8267H78.3146ZM78.2343 97.9282L89.0214 83.91L88.4076 83.4377L77.6205 97.4559L78.2343 97.9282ZM89.1017 83.6738V79.2143H88.3273V83.6738H89.1017ZM88.7145 78.827H69.6814V79.6015H88.7145V78.827ZM69.2942 79.2143V84.8855H70.0686V79.2143H69.2942ZM69.6814 85.2727H80.4012V84.4983H69.6814V85.2727ZM80.014 84.8855V85.0201H80.7884V84.8855H80.014ZM80.0948 84.7833L69.274 98.7847L69.8868 99.2583L80.7076 85.2569L80.0948 84.7833ZM69.1932 99.0215V103.498H69.9677V99.0215H69.1932ZM106.59 103.498V103.885H106.978V103.498H106.59ZM106.59 95.8072L106.244 95.6341L106.203 95.7158V95.8072H106.59ZM114.887 79.2143L115.233 79.3874L115.513 78.827H114.887V79.2143ZM107.432 79.2143V78.827H107.177L107.076 79.0606L107.432 79.2143ZM103.174 89.059V89.4462H103.429L103.53 89.2127L103.174 89.059ZM103.04 89.059L102.684 89.2127L102.785 89.4462H103.04V89.059ZM98.782 79.2143L99.1374 79.0606L99.0364 78.827H98.782V79.2143ZM91.1587 79.2143V78.827H90.5321L90.8123 79.3874L91.1587 79.2143ZM99.4552 95.8072H99.8424V95.7158L99.8015 95.6341L99.4552 95.8072ZM99.4552 103.498H99.0679V103.885H99.4552V103.498ZM106.978 103.498V95.8072H106.203V103.498H106.978ZM106.937 95.9804L115.233 79.3874L114.541 79.0411L106.244 95.6341L106.937 95.9804ZM114.887 78.827H107.432V79.6015H114.887V78.827ZM107.076 79.0606L102.819 88.9053L103.53 89.2127L107.787 79.368L107.076 79.0606ZM103.174 88.6717H103.04V89.4462H103.174V88.6717ZM103.395 88.9053L99.1374 79.0606L98.4266 79.368L102.684 89.2127L103.395 88.9053ZM98.782 78.827H91.1587V79.6015H98.782V78.827ZM90.8123 79.3874L99.1088 95.9804L99.8015 95.6341L91.505 79.0411L90.8123 79.3874ZM99.0679 95.8072V103.498H99.8424V95.8072H99.0679ZM99.4552 103.885H106.59V103.111H99.4552V103.885Z" fill="white"/>
</g>
</g>
<defs>
<filter id="filter0_b_7_214" x="-132.698" y="-102.067" width="430.224" height="387.674" filterUnits="userSpaceOnUse" color-interpolation-filters="sRGB">
<feFlood flood-opacity="0" result="BackgroundImageFix"/>
<feGaussianBlur in="BackgroundImageFix" stdDeviation="90.1483"/>
<feComposite in2="SourceAlpha" operator="in" result="effect1_backgroundBlur_7_214"/>
<feBlend mode="normal" in="SourceGraphic" in2="effect1_backgroundBlur_7_214" result="shape"/>
</filter>
<filter id="filter1_bd_7_214" x="-131.015" y="-101.082" width="426.199" height="384.877" filterUnits="userSpaceOnUse" color-interpolation-filters="sRGB">
<feFlood flood-opacity="0" result="BackgroundImageFix"/>
<feGaussianBlur in="BackgroundImageFix" stdDeviation="90.1483"/>
<feComposite in2="SourceAlpha" operator="in" result="effect1_backgroundBlur_7_214"/>
<feColorMatrix in="SourceAlpha" type="matrix" values="0 0 0 0 0 0 0 0 0 0 0 0 0 0 0 0 0 0 127 0" result="hardAlpha"/>
<feOffset dy="1.08178"/>
<feGaussianBlur stdDeviation="5.4089"/>
<feComposite in2="hardAlpha" operator="out"/>
<feColorMatrix type="matrix" values="0 0 0 0 0.54902 0 0 0 0 0.290196 0 0 0 0 0.886275 0 0 0 0.15 0"/>
<feBlend mode="normal" in2="effect1_backgroundBlur_7_214" result="effect2_dropShadow_7_214"/>
<feBlend mode="normal" in="SourceGraphic" in2="effect2_dropShadow_7_214" result="shape"/>
</filter>
<linearGradient id="paint0_linear_7_214" x1="34.8153" y1="0" x2="34.8153" y2="27.0805" gradientUnits="userSpaceOnUse">
<stop stop-color="#8042DA"/>
<stop offset="0.878125" stop-color="#7D40D8"/>
</linearGradient>
<clipPath id="clip0_7_214">
<rect width="94.9655" height="94.9655" fill="white" transform="translate(0 0.413795)"/>
</clipPath>
</defs>
</svg>
